<?xml version='1.0' encoding='utf-8'?>
<svg xmlns="http://www.w3.org/2000/svg" width="224" height="224" viewBox="0 0 224 224"><rect x="0" y="0" width="100%" height="100%" fill="white" /><defs />
  <g id="frame_0" style="opacity:0"><g>
    <path d="M 223.99655151 169.11944580 C 225.71577454 204.19262695 233.04521179 230.93716431 187.73370361 224.42156982 C 151.72236633 223.63528442 142.09603882 224.20722961 100.63882446 223.41342163 C 77.13500214 223.84106445 30.60701752 226.21536255 15.03158569 223.23208618 C -10.90850830 211.98468018 3.11090088 176.23254395 -0.36369324 143.75567627 C 1.50157166 114.42636108 -0.88641357 87.49964905 -1.45508575 54.05561066 C 1.13523865 21.30123901 1.04573059 -4.14207458 30.95423889 0.23265076 C 65.05122375 -0.04596710 93.61888123 -0.35174561 121.76659393 0.66503906 C 148.73254395 0.96674347 185.30557251 -2.56474304 212.55291748 -0.54524994 C 234.32942200 13.08654022 221.54507446 42.62603760 224.53668213 79.19855499 C 223.02297974 109.56748199 223.29501343 135.26782227 223.99655151 169.11944580" stroke-width="1.00000000" fill="rgb(255, 255, 255)" opacity="1.0" />
    <path d="M 89.06105042 206.82014465 C 90.23219299 213.57546997 90.13614655 227.09158325 81.53864288 225.15208435 C 71.72643280 225.33834839 62.96392822 223.60533142 60.58137894 217.97856140 C 58.48693085 212.64016724 59.65288544 201.06893921 59.04666519 193.18293762 C 59.11731339 183.48370361 59.65572357 176.45292664 59.32592773 167.28036499 C 59.07074356 158.68888855 59.19938278 150.41818237 58.86980438 141.18354797 C 61.58396149 130.84255981 58.46662140 123.70141602 67.13130188 123.15690613 C 79.77342224 122.16282654 86.37046051 120.19467926 89.18914032 127.98638153 C 89.66426086 139.47027588 88.48982239 144.91543579 89.02014160 153.60928345 C 89.00177765 164.55555725 89.40937805 167.78585815 88.86228943 180.09924316 C 89.24049377 186.72454834 88.49932098 197.70120239 89.06105042 206.82014465" stroke-width="1.00000000" fill="rgb(212, 39, 51)" opacity="1.0" />
    <path d="M 122.91571045 203.82151794 C 123.04841614 211.15808105 125.35586548 225.11506653 116.52504730 225.22082520 C 107.20269012 225.94403076 98.02222443 223.50502014 92.08467865 219.86373901 C 88.15690613 216.45037842 89.76884460 206.83116150 89.85848999 196.17266846 C 90.04014587 186.81848145 90.61083221 179.21234131 90.02965546 169.34286499 C 89.65731812 159.54875183 89.80842590 152.81106567 89.54504395 142.35534668 C 92.58994293 130.94622803 87.48516846 123.94010162 96.03170013 122.69183350 C 108.46603394 120.29746246 114.38615417 119.99861145 122.03647614 123.65663147 C 124.68243408 134.04409790 122.60957336 136.93002319 123.00805664 148.78971863 C 122.94653320 159.37437439 123.21582031 167.28804016 122.99598694 176.09931946 C 123.07936096 186.71813965 123.22515106 193.68090820 122.91571045 203.82151794" stroke-width="1.00000000" fill="rgb(4, 151, 242)" opacity="1.0" />
    <path d="M 165.13349915 169.32586670 C 165.54661560 178.00486755 163.91217041 185.53306580 165.06509399 196.48825073 C 165.18823242 207.52980042 169.46044922 216.57958984 161.92953491 223.25149536 C 157.13334656 227.05064392 143.58865356 223.38946533 135.06245422 223.45246887 C 122.59078217 226.79716492 121.77536774 220.63012695 122.77458191 207.14291382 C 121.89806366 189.87533569 123.62429047 192.71461487 123.08744812 175.82446289 C 123.83522034 166.76869202 123.22272491 161.58502197 122.69593811 150.79867554 C 124.16234589 143.16685486 121.18107605 131.99792480 123.66168213 122.66617584 C 131.36376953 120.07836914 139.40338135 124.33654022 151.18524170 122.03453827 C 167.26910400 120.21668243 167.30906677 126.71786499 165.15348816 139.48934937 C 164.93963623 150.16400146 165.15873718 157.07833862 165.13349915 169.32586670" stroke-width="1.00000000" fill="rgb(4, 109, 204)" opacity="1.0" />
  </g>
<animate attributeName="opacity" calcMode="discrete" dur="5.250000s" repeatCount="indefinite" keyTimes="0.000000;0.047619;0.095238;0.142857;0.190476;0.238095;0.285714;0.333333;0.380952;0.428571;0.476190;0.523810;0.571429;0.619048;0.666667;0.714286;0.761905;0.809524;0.857143;0.904762;0.952381;1" values="1;0;0;0;0;0;0;0;0;0;0;0;0;0;0;0;0;0;0;0;0;0" /></g><g id="frame_1" style="opacity:0"><g>
    <path d="M 231.35208130 173.29440308 C 236.36718750 218.97586060 236.00344849 233.61587524 194.85211182 226.42904663 C 162.63053894 223.35241699 139.51322937 221.12396240 100.21167755 222.70770264 C 61.35785675 226.50936890 30.38028717 233.71469116 5.65200043 232.59210205 C -11.99874878 214.72026062 -1.47833252 182.75309753 -6.12161255 144.40823364 C -3.27362823 108.54483795 -9.79203796 77.15749359 -10.76779175 44.72860718 C -14.75384521 3.59522247 -6.31176758 -12.27199554 22.65560150 -4.55274963 C 54.93999100 -1.70824432 91.22921753 -5.05786896 121.85874939 -5.18318939 C 155.50575256 -5.75107574 184.92761230 -12.81703949 213.57998657 -14.59893036 C 233.22409058 -4.10260773 224.68667603 30.57052612 229.02619934 68.85491943 C 229.88577271 105.44290924 230.12197876 142.99543762 231.35208130 173.29440308" stroke-width="1.00000000" fill="rgb(255, 255, 255)" opacity="1.0" />
    <path d="M 89.89424133 209.88825989 C 91.05876160 219.85737610 90.50406647 231.31347656 82.66717529 229.56498718 C 70.86960602 229.81875610 64.10781097 228.40440369 60.70341110 222.18370056 C 58.82444000 217.02905273 60.10837555 205.83471680 59.57586670 195.89654541 C 59.97410583 185.51457214 60.47772217 178.54751587 60.22403336 169.36589050 C 60.44293213 158.32785034 60.51984787 151.98529053 59.99000168 141.82296753 C 62.16870880 130.13104248 56.66336823 121.92053223 65.92586517 123.53861237 C 79.18542480 124.05682373 86.07945251 121.44372559 91.29672241 126.68963623 C 92.17986298 138.50125122 90.49747467 145.23371887 91.10744476 153.88383484 C 90.82836151 162.35366821 90.97237396 170.08215332 90.40607452 181.61854553 C 90.36891937 189.38052368 89.55606079 201.38221741 89.89424133 209.88825989" stroke-width="1.00000000" fill="rgb(212, 39, 51)" opacity="1.0" />
    <path d="M 125.89776611 208.15959167 C 125.75782776 220.08952332 128.43095398 228.01016235 120.17721558 229.97964478 C 108.50122833 230.39889526 101.58711243 227.43820190 92.85910797 224.70346069 C 88.61849976 220.34541321 90.60515594 212.79486084 90.11602020 199.85133362 C 90.29904175 189.54138184 90.49221039 180.97935486 90.16116333 171.23135376 C 90.21578217 159.49943542 90.36294556 153.07463074 90.11668396 142.58367920 C 92.63795471 129.18673706 85.74566650 122.49067688 95.07750702 122.61587524 C 108.34520721 121.49475861 114.77925110 121.15984344 124.33372498 121.61573029 C 128.75018311 131.76153564 125.31826019 136.76608276 125.97151184 148.75495911 C 125.87702179 159.81886292 125.74457550 168.33842468 125.77712250 178.26205444 C 125.58954620 189.90226746 125.94644165 197.86943054 125.89776611 208.15959167" stroke-width="1.00000000" fill="rgb(4, 151, 242)" opacity="1.0" />
    <path d="M 164.60635376 171.82214355 C 165.30603027 179.35920715 164.08514404 187.32286072 164.58351135 198.48396301 C 163.62353516 211.44902039 168.10292053 216.97354126 161.89364624 225.77423096 C 157.46556091 231.35452271 146.18615723 227.66432190 135.79228210 225.87545776 C 123.46241760 227.46560669 125.32583618 219.69509888 126.31279755 207.58065796 C 126.18948364 192.27079773 128.35984802 191.86347961 127.77937317 177.57946777 C 127.86350250 164.87725830 127.43138123 165.34645081 126.09525299 152.62649536 C 127.26522827 145.22232056 125.50149536 134.72010803 125.49218750 124.19820404 C 132.75148010 120.51994324 140.67327881 124.50865936 152.16793823 123.21694946 C 167.27093506 121.91709137 166.27740479 130.27896118 164.54132080 141.92861938 C 164.85386658 153.85913086 164.75041199 158.47070312 164.60635376 171.82214355" stroke-width="1.00000000" fill="rgb(4, 109, 204)" opacity="1.0" />
  </g>
<animate attributeName="opacity" calcMode="discrete" dur="5.250000s" repeatCount="indefinite" keyTimes="0.000000;0.047619;0.095238;0.142857;0.190476;0.238095;0.285714;0.333333;0.380952;0.428571;0.476190;0.523810;0.571429;0.619048;0.666667;0.714286;0.761905;0.809524;0.857143;0.904762;0.952381;1" values="0;1;0;0;0;0;0;0;0;0;0;0;0;0;0;0;0;0;0;0;0;0" /></g><g id="frame_2" style="opacity:0"><g>
    <path d="M 229.96313477 171.29249573 C 234.27801514 213.05166626 230.05073547 236.88748169 195.31552124 227.86122131 C 162.35205078 222.94396973 132.06092834 217.74642944 97.59546661 221.42916870 C 59.26020813 224.36770630 27.46308899 236.86662292 3.82107544 229.42004395 C -12.83750916 207.15704346 -3.81028748 176.09863281 -8.42214966 138.26570129 C -6.45273590 105.50377655 -9.97489166 74.35003662 -11.42036438 40.75777435 C -12.31296539 4.31740570 -0.09667969 -10.80423737 30.12316895 -6.86994171 C 61.16851425 -5.43076324 92.85453796 -6.54314423 127.34282684 -6.91687012 C 160.91523743 -5.83354187 188.17056274 -12.74452972 213.51959229 -14.57252502 C 232.52969360 -0.52184296 225.35681152 29.18119812 228.77676392 66.47254944 C 228.74700928 105.94116974 228.73675537 141.73825073 229.96313477 171.29249573" stroke-width="1.00000000" fill="rgb(255, 255, 255)" opacity="1.0" />
    <path d="M 91.33480835 209.51510620 C 92.44497681 220.39613342 92.23550415 231.13174438 84.72682190 230.03198242 C 72.76310730 230.39607239 66.29918671 228.85177612 61.15919495 223.01394653 C 59.09942245 217.72543335 60.06495667 207.72018433 59.66621780 196.83016968 C 59.97216797 186.74488831 60.33769608 179.23863220 60.13455963 169.98484802 C 60.43590164 158.16120911 60.46846771 152.22796631 60.01198578 142.74569702 C 61.85982895 129.73413086 56.73902893 122.63402557 65.96397400 123.59785461 C 78.88084412 123.86805725 85.80854797 122.26132965 92.21318054 125.28710938 C 93.54077148 136.97994995 91.58155060 144.63920593 92.51913452 152.69253540 C 92.32338715 160.77011108 92.46264648 169.29930115 91.92125702 180.15216064 C 91.76816559 189.79501343 91.01133728 201.06741333 91.33480835 209.51510620" stroke-width="1.00000000" fill="rgb(212, 39, 51)" opacity="1.0" />
    <path d="M 126.06809998 208.51611328 C 126.16464233 220.27424622 128.64682007 228.80093384 120.37812042 230.63850403 C 108.73358917 230.88084412 101.22601318 227.95939636 92.77051544 225.20297241 C 88.88639832 220.48155212 91.35132599 213.70747375 90.83309174 200.30374146 C 91.14117432 189.84651184 91.14230347 181.10462952 90.68653107 171.61726379 C 90.71525574 159.38600159 90.62498474 153.19007874 90.52677155 143.10179138 C 93.01688385 129.31127930 86.59371948 123.07686615 95.51409149 122.51264954 C 107.36824799 121.22792816 116.68242645 121.47805786 125.10552216 121.61587524 C 130.15641785 130.08940125 125.97343445 137.20420837 126.47908783 148.88342285 C 126.10469055 160.11996460 125.90338135 168.65406799 125.93059540 178.60769653 C 125.73374176 190.19705200 126.03033447 198.46238708 126.06809998 208.51611328" stroke-width="1.00000000" fill="rgb(4, 151, 242)" opacity="1.0" />
    <path d="M 164.64831543 171.90544128 C 165.55070496 179.08016968 164.26829529 187.33827209 164.70315552 198.48509216 C 163.84185791 212.13246155 168.21368408 216.86761475 161.71965027 225.94546509 C 157.15682983 231.77084351 145.54348755 228.66316223 136.00079346 226.23159790 C 123.75473022 227.13790894 125.80653381 220.24670410 126.64125061 207.63441467 C 126.01927948 192.84608459 127.60974121 190.57301331 127.03980255 178.18977356 C 126.69702148 162.84820557 126.65495300 165.55743408 125.89868927 153.08152771 C 127.40050507 145.41354370 126.37373352 135.94053650 125.09897614 124.39281464 C 130.72377014 120.39688110 142.75619507 124.09319305 152.87738037 123.22051239 C 167.97616577 122.58532715 165.73052979 129.79101562 164.40246582 141.83892822 C 164.76535034 153.45472717 164.78723145 158.06599426 164.64831543 171.90544128" stroke-width="1.00000000" fill="rgb(4, 109, 204)" opacity="1.0" />
  </g>
<animate attributeName="opacity" calcMode="discrete" dur="5.250000s" repeatCount="indefinite" keyTimes="0.000000;0.047619;0.095238;0.142857;0.190476;0.238095;0.285714;0.333333;0.380952;0.428571;0.476190;0.523810;0.571429;0.619048;0.666667;0.714286;0.761905;0.809524;0.857143;0.904762;0.952381;1" values="0;0;1;0;0;0;0;0;0;0;0;0;0;0;0;0;0;0;0;0;0;0" /></g><g id="frame_3" style="opacity:0"><g>
    <path d="M 229.51309204 172.78289795 C 234.33810425 213.90081787 228.55435181 237.27285767 195.47009277 227.93563843 C 162.10206604 223.43940735 130.48733521 219.97988892 97.59440613 222.50102234 C 59.42728424 224.79827881 27.20523071 236.10203552 3.13999176 228.28706360 C -14.46097565 207.16339111 -5.84290314 174.98812866 -10.33368683 137.25198364 C -9.43727112 103.99405670 -11.60585022 72.99787903 -12.91285706 38.25522614 C -12.43688965 5.16670227 0.58310699 -9.50833130 30.64998627 -7.98433685 C 61.81932449 -6.86958313 93.81357574 -7.79928589 127.77558899 -8.67074585 C 161.31921387 -7.65850067 189.06582642 -13.85354614 215.44927979 -14.27761841 C 232.84799194 1.15885162 224.55239868 31.79397583 228.18641663 68.38764954 C 227.92729187 108.27657318 228.11758423 143.65032959 229.51309204 172.78289795" stroke-width="1.00000000" fill="rgb(255, 255, 255)" opacity="1.0" />
    <path d="M 93.09284973 209.65415955 C 93.93424988 221.46104431 94.31541443 229.38079834 86.28215790 230.44856262 C 74.17570496 230.57502747 67.43081665 228.62760925 61.14270020 223.47047424 C 58.82027435 217.48925781 59.85514450 209.24635315 59.53160858 197.43444824 C 59.72998047 187.83721924 60.12762070 179.53146362 60.03299713 170.07788086 C 60.39762497 158.34123230 60.54537582 151.69334412 60.22425079 142.87057495 C 61.65594482 129.03710938 57.03175735 122.71099854 66.05459595 123.55282593 C 78.62035370 123.75767517 85.72811127 122.55197144 92.78830719 124.59580994 C 94.77344513 135.91030884 92.78812408 143.71128845 94.06741333 151.95684814 C 94.05911255 160.17138672 94.38711548 168.65650940 93.84863281 179.71806335 C 93.71298218 190.31478882 93.01299286 200.91333008 93.09284973 209.65415955" stroke-width="1.00000000" fill="rgb(212, 39, 51)" opacity="1.0" />
    <path d="M 127.10325623 208.25399780 C 127.12588501 219.92095947 129.51226807 227.95664978 121.33205414 230.14251709 C 110.14230347 230.62013245 102.13683319 227.74862671 94.44964600 224.41441345 C 91.07389832 219.72349548 93.22573090 212.68020630 92.69366455 199.42422485 C 92.92967987 189.23609924 93.03269958 180.36044312 92.67401886 170.99528503 C 92.80610657 159.02182007 92.78733826 152.22143555 92.52554321 142.68331909 C 94.46347046 128.88514709 88.80891418 122.57608032 97.71667480 122.34879303 C 109.35104370 121.09764099 118.79891205 121.56958771 127.27117920 121.54490662 C 132.21397400 129.16088867 127.77743530 137.21064758 128.25772095 148.68894958 C 127.84895325 159.84158325 127.68254089 168.35073853 127.57896423 178.14414978 C 127.17636871 189.68104553 127.20921326 198.27159119 127.10325623 208.25399780" stroke-width="1.00000000" fill="rgb(4, 151, 242)" opacity="1.0" />
    <path d="M 164.69703674 171.59274292 C 165.60281372 179.53887939 164.07485962 188.00938416 164.82040405 198.76052856 C 164.03895569 211.12100220 167.78234863 216.87687683 162.62759399 226.53071594 C 158.50782776 232.51985168 145.82420349 229.85270691 136.88990784 227.18211365 C 125.06661987 227.41761780 125.30418396 221.28430176 125.77693176 208.46089172 C 125.49665070 195.47099304 126.69336700 189.12979126 126.65515900 179.54791260 C 126.64802551 162.57911682 126.86411285 166.68798828 126.11991119 154.13117981 C 127.55693817 145.31542969 126.16630554 137.66278076 125.32593536 125.71611786 C 131.65977478 120.21722412 143.48995972 123.91314697 152.94728088 123.27407074 C 167.91905212 122.54280090 165.76638794 129.39837646 164.62390137 141.50509644 C 165.09199524 153.09822083 164.94805908 157.99850464 164.69703674 171.59274292" stroke-width="1.00000000" fill="rgb(4, 109, 204)" opacity="1.0" />
  </g>
<animate attributeName="opacity" calcMode="discrete" dur="5.250000s" repeatCount="indefinite" keyTimes="0.000000;0.047619;0.095238;0.142857;0.190476;0.238095;0.285714;0.333333;0.380952;0.428571;0.476190;0.523810;0.571429;0.619048;0.666667;0.714286;0.761905;0.809524;0.857143;0.904762;0.952381;1" values="0;0;0;1;0;0;0;0;0;0;0;0;0;0;0;0;0;0;0;0;0;0" /></g><g id="frame_4" style="opacity:0"><g>
    <path d="M 230.38629150 174.61248779 C 235.48724365 216.27310181 227.95111084 237.27062988 195.89538574 228.83216858 C 162.30386353 227.74145508 129.75738525 227.38749695 97.09251404 227.03691101 C 58.76582336 227.39105225 26.19407654 236.10110474 3.19068909 227.98532104 C -16.07035828 207.18475342 -8.02988434 174.31759644 -12.23348999 136.28984070 C -12.16565704 103.43470764 -12.99676514 71.06138611 -14.33576202 36.79882050 C -13.39641571 5.34213257 1.71198273 -9.00778198 30.70327759 -9.54818726 C 62.16367722 -8.74246979 94.41603088 -9.77866364 127.89920044 -11.20515442 C 162.29156494 -10.56503296 192.86628723 -15.43428802 218.75553894 -12.61757660 C 234.91146851 4.30072021 226.22697449 35.06516266 228.53189087 71.56208801 C 228.08596802 111.48831177 229.09204102 146.80480957 230.38629150 174.61248779" stroke-width="1.00000000" fill="rgb(255, 255, 255)" opacity="1.0" />
    <path d="M 93.72096252 209.58239746 C 94.58042908 221.30001831 94.82431030 229.04197693 86.67119598 230.52087402 C 74.53704071 230.57598877 67.51105499 228.61502075 61.11979675 223.65095520 C 58.68727875 217.56471252 59.91862106 209.49932861 59.53936386 197.56607056 C 59.73390198 188.01708984 60.17063141 179.59965515 60.05924988 170.22117615 C 60.42327499 158.58819580 60.52182007 151.39006042 60.23091888 142.83651733 C 61.52093887 128.94314575 57.17573929 122.77554321 66.07746887 123.61653900 C 78.42918396 123.75090790 85.65287781 122.75302887 93.07604218 124.47046661 C 95.66966248 135.43367004 93.56906128 142.84970093 94.96630859 151.57247925 C 95.05839539 159.87001038 95.30039978 168.26803589 94.70375824 179.52813721 C 94.50988007 190.28463745 93.74183655 200.75646973 93.72096252 209.58239746" stroke-width="1.00000000" fill="rgb(212, 39, 51)" opacity="1.0" />
    <path d="M 126.97641754 208.77514648 C 126.90576935 220.36656189 129.01760864 229.03501892 121.17044830 230.62077332 C 110.27082825 231.15350342 101.35689545 228.18203735 94.63813782 224.48603821 C 92.25438690 219.02088928 94.53326416 212.90362549 93.94181824 199.26477051 C 94.30659485 189.06199646 94.39556122 180.18173218 94.11833191 170.93072510 C 94.32740784 159.04632568 94.41367340 152.15202332 94.06069946 142.46511841 C 95.53918457 128.92501831 90.30625916 122.41539001 99.35387421 122.45574188 C 111.02155304 121.23651886 120.44007111 121.40855408 128.75238037 121.78985596 C 132.85070801 129.95495605 128.46862793 137.68447876 128.87451172 149.15350342 C 128.41647339 160.24224854 128.13314819 168.72262573 127.92703247 178.51918030 C 127.44384003 189.88604736 127.19287872 199.03929138 126.97641754 208.77514648" stroke-width="1.00000000" fill="rgb(4, 151, 242)" opacity="1.0" />
    <path d="M 165.28128052 171.61357117 C 166.19482422 179.92062378 164.46775818 188.55145264 165.01063538 199.46408081 C 164.36706543 211.76400757 167.50097656 217.59504700 162.90447998 227.77337646 C 158.64607239 234.45556641 145.87959290 232.13674927 137.22235107 228.73184204 C 125.16392517 228.09683228 125.42591095 222.23411560 125.49925995 209.36573792 C 125.27478027 196.35089111 126.68740845 189.58715820 126.67312622 180.06195068 C 126.86973572 162.86898804 127.03040314 166.99053955 126.41699219 154.42253113 C 127.95397949 145.07327271 126.39343262 138.11160278 125.35742188 125.60722351 C 132.19926453 120.19505310 144.36557007 123.95089722 153.30358887 123.49177551 C 168.64208984 122.46591187 165.67417908 127.89685059 165.09899902 141.05857849 C 165.74218750 153.70220947 165.40644836 157.67732239 165.28128052 171.61357117" stroke-width="1.00000000" fill="rgb(4, 109, 204)" opacity="1.0" />
  </g>
<animate attributeName="opacity" calcMode="discrete" dur="5.250000s" repeatCount="indefinite" keyTimes="0.000000;0.047619;0.095238;0.142857;0.190476;0.238095;0.285714;0.333333;0.380952;0.428571;0.476190;0.523810;0.571429;0.619048;0.666667;0.714286;0.761905;0.809524;0.857143;0.904762;0.952381;1" values="0;0;0;0;1;0;0;0;0;0;0;0;0;0;0;0;0;0;0;0;0;0" /></g><g id="frame_5" style="opacity:0"><g>
    <path d="M 232.20426941 173.78793335 C 236.98526001 215.38533020 226.16687012 234.85342407 195.72357178 230.02706909 C 162.57708740 230.42062378 126.60282135 230.07331848 95.90440369 230.44143677 C 57.68571472 229.65881348 24.56608582 237.92074585 2.27649689 226.39338684 C -15.53994751 204.90644836 -8.76091003 172.72418213 -12.88631439 134.66891479 C -13.11921692 102.50227356 -13.47241211 69.49168396 -14.61178589 33.39360809 C -12.80689240 5.00031281 2.61731720 -8.36517334 31.38039398 -10.22357178 C 63.76644516 -9.74361420 95.32368469 -10.68853760 128.36163330 -12.27146149 C 164.24023438 -11.59880066 196.41128540 -16.20222473 220.24249268 -11.34364319 C 236.42503357 6.04607391 228.68133545 35.40534973 229.93324280 72.04031372 C 229.55459595 111.13764954 230.98596191 146.67916870 232.20426941 173.78793335" stroke-width="1.00000000" fill="rgb(255, 255, 255)" opacity="1.0" />
    <path d="M 93.74800873 209.83738708 C 94.58862305 221.54327393 95.01293945 229.33554077 86.85240173 231.02343750 C 74.60871124 230.94039917 67.37634277 228.83660889 60.85049820 224.15298462 C 58.55699158 217.72969055 60.13319397 209.92425537 59.65151978 197.83581543 C 59.89102936 188.07931519 60.26698303 179.62904358 60.08748627 170.39199829 C 60.37025452 158.67395020 60.48326111 151.27668762 60.19622803 142.74453735 C 61.49945450 128.91902161 57.20559692 122.71278381 66.15710449 123.66694641 C 78.38467407 123.83256531 85.89257812 122.91014099 93.66542053 124.41627502 C 96.71411896 135.10014343 94.35054779 142.21379089 95.64090729 151.38128662 C 95.59143829 159.96322632 95.70518494 168.11680603 94.99566650 179.57510376 C 94.67880249 190.37109375 93.78003693 200.97181702 93.74800873 209.83738708" stroke-width="1.00000000" fill="rgb(212, 39, 51)" opacity="1.0" />
    <path d="M 127.50848389 208.12489319 C 127.45304108 219.57743835 129.60543823 227.88717651 121.64639282 229.97741699 C 110.76639557 230.76837158 102.52758789 228.22801208 96.39246368 223.88652039 C 94.01736450 218.83251953 95.69516754 211.10577393 95.07945251 198.23582458 C 95.30296326 187.92857361 95.36750793 179.63681030 95.22396851 170.26089478 C 95.42064667 158.46313477 95.50242615 151.19917297 95.23171997 142.10491943 C 96.48107147 128.32583618 91.88646698 122.13995361 100.68464661 122.21253967 C 112.09925842 121.11082458 121.50463867 121.20819855 129.71487427 121.68486023 C 133.53063965 129.70269775 129.29287720 137.67507935 129.67712402 148.99513245 C 129.21627808 159.98080444 129.03181458 168.49438477 128.67340088 178.10054016 C 128.03916931 189.47897339 127.75381470 198.47959900 127.50848389 208.12489319" stroke-width="1.00000000" fill="rgb(4, 151, 242)" opacity="1.0" />
    <path d="M 165.36785889 172.20989990 C 166.23599243 181.00219727 164.71578979 189.79090881 165.41554260 200.39871216 C 164.62779236 212.87727356 167.43655396 218.42605591 162.47949219 228.70402527 C 158.01013184 235.78836060 145.64167786 234.88385010 136.98817444 230.39743042 C 125.62318420 227.92785645 125.32875061 222.69148254 125.41474152 209.78030396 C 125.42959595 196.37225342 126.76455688 189.90812683 126.61662292 180.19143677 C 126.63846588 162.77580261 126.95489502 167.13317871 126.21197510 154.44201660 C 127.63173676 144.59219360 125.66510010 138.11795044 125.55200195 125.52930450 C 133.13482666 120.04586792 145.20765686 123.76705170 153.79791260 123.38491821 C 168.71353149 122.41143036 165.57482910 128.38827515 165.36544800 141.32159424 C 165.76950073 154.07133484 165.42227173 158.02423096 165.36785889 172.20989990" stroke-width="1.00000000" fill="rgb(4, 109, 204)" opacity="1.0" />
  </g>
<animate attributeName="opacity" calcMode="discrete" dur="5.250000s" repeatCount="indefinite" keyTimes="0.000000;0.047619;0.095238;0.142857;0.190476;0.238095;0.285714;0.333333;0.380952;0.428571;0.476190;0.523810;0.571429;0.619048;0.666667;0.714286;0.761905;0.809524;0.857143;0.904762;0.952381;1" values="0;0;0;0;0;1;0;0;0;0;0;0;0;0;0;0;0;0;0;0;0;0" /></g><g id="frame_6" style="opacity:0"><g>
    <path d="M 233.24508667 174.44564819 C 237.79689026 215.03802490 225.47781372 234.12261963 194.51596069 232.02328491 C 161.04241943 233.72192383 124.37770081 232.36669922 94.65524292 232.62408447 C 55.72441101 231.66806030 22.38006592 239.84407043 0.68788910 226.75721741 C -16.18070984 204.15602112 -9.85256195 172.16918945 -13.73133850 133.77990723 C -13.80167389 99.61513519 -14.60131836 66.55918884 -15.08282471 31.70265961 C -12.52022552 3.15208435 4.49300385 -8.50441742 33.24335480 -10.96504974 C 66.06111145 -10.51229858 97.60998535 -11.46279144 130.47367859 -12.65983582 C 167.57098389 -11.82057190 198.73880005 -16.07634735 222.21020508 -11.30976105 C 238.33062744 6.20771790 231.00656128 36.51454163 231.69471741 72.61873627 C 230.94326782 111.36199188 232.13836670 146.29502869 233.24508667 174.44564819" stroke-width="1.00000000" fill="rgb(255, 255, 255)" opacity="1.0" />
    <path d="M 94.72340393 209.73663330 C 95.25787354 221.40666199 95.31376648 229.13360596 87.07085419 230.87664795 C 74.82655334 230.74609375 67.43883514 228.55700684 60.87646103 224.05957031 C 58.48925781 217.75193787 60.26120758 209.69612122 59.76511765 197.70608521 C 60.03883362 187.84664917 60.42056274 179.31829834 60.24213409 170.30603027 C 60.48840332 158.51242065 60.57132339 151.00523376 60.28283691 142.63879395 C 61.49408722 128.72041321 57.20500946 122.64942932 66.13979340 123.57418823 C 78.16616058 123.66911316 85.93286133 122.74156952 93.80367279 124.52311707 C 97.55961609 135.15069580 95.23063660 141.58029175 96.70693970 151.29953003 C 96.89024353 159.84429932 96.99445343 167.97610474 96.22223663 179.52029419 C 95.87030029 190.35290527 95.02123260 200.68751526 94.72340393 209.73663330" stroke-width="1.00000000" fill="rgb(212, 39, 51)" opacity="1.0" />
    <path d="M 127.59593964 208.02220154 C 127.58776093 219.38557434 129.37176514 227.63218689 121.37667084 229.98660278 C 110.66770935 230.95343018 102.39445496 228.65351868 96.51089478 224.11183167 C 94.19485474 219.20956421 95.92152405 211.38821411 95.26245117 198.54681396 C 95.45315552 188.34069824 95.44604492 180.00341797 95.29692841 170.58811951 C 95.47266388 158.47328186 95.37087250 151.40382385 95.27621460 142.96453857 C 96.07204437 128.24961853 92.76445770 123.33812714 101.17572021 122.60583496 C 112.54936218 121.13757324 121.31932068 121.53987122 129.66157532 121.75167847 C 133.61346436 129.74957275 129.11770630 137.93614197 129.68112183 149.05487061 C 129.39355469 159.64263916 129.36752319 168.43435669 128.88049316 178.05232239 C 128.33290100 189.31250000 127.84804535 198.56257629 127.59593964 208.02220154" stroke-width="1.00000000" fill="rgb(4, 151, 242)" opacity="1.0" />
    <path d="M 165.43504333 172.81991577 C 166.25271606 181.84030151 164.77380371 190.38209534 165.53198242 201.07904053 C 164.65881348 213.63883972 167.49812317 219.19474792 162.39489746 229.42034912 C 158.05256653 236.44668579 145.60298157 236.22186279 137.01098633 231.54598999 C 125.93491364 228.19720459 125.36573792 223.18609619 125.42460632 210.08206177 C 125.42870331 196.27856445 126.78538513 189.96408081 126.62828827 180.26564026 C 126.68321991 162.70086670 127.01519775 167.20555115 126.28054810 154.41430664 C 127.65559387 144.38198853 125.60792542 138.05233765 125.55548859 125.48873901 C 133.30220032 120.16600037 145.63230896 123.96984863 154.11946106 123.57315063 C 168.95745850 122.35352325 165.41740417 128.79060364 165.40995789 141.75521851 C 165.73974609 154.47529602 165.53839111 158.73226929 165.43504333 172.81991577" stroke-width="1.00000000" fill="rgb(4, 109, 204)" opacity="1.0" />
  </g>
<animate attributeName="opacity" calcMode="discrete" dur="5.250000s" repeatCount="indefinite" keyTimes="0.000000;0.047619;0.095238;0.142857;0.190476;0.238095;0.285714;0.333333;0.380952;0.428571;0.476190;0.523810;0.571429;0.619048;0.666667;0.714286;0.761905;0.809524;0.857143;0.904762;0.952381;1" values="0;0;0;0;0;0;1;0;0;0;0;0;0;0;0;0;0;0;0;0;0;0" /></g><g id="frame_7" style="opacity:0"><g>
    <path d="M 233.23724365 176.09869385 C 237.72474670 216.14825439 224.98846436 234.86120605 193.48904419 232.80203247 C 159.85447693 234.50849915 123.35649109 233.31042480 94.11749268 233.34411621 C 54.24461365 232.16023254 22.58193970 239.62911987 1.03901672 227.13006592 C -15.84315491 203.66325378 -9.82077026 170.99745178 -13.18312836 132.89849854 C -13.01614380 98.62226868 -14.90377808 65.72798157 -14.80738068 30.35024261 C -11.76596832 1.99471283 5.76419067 -9.27406311 35.02462769 -11.46450806 C 68.00800323 -10.78143311 99.40785980 -11.77320099 131.93188477 -12.74562073 C 168.39065552 -11.57126617 199.55419922 -15.95930481 223.28749084 -10.20292664 C 239.12045288 7.58261871 231.79534912 37.77093506 232.16658020 73.72360229 C 231.22550964 111.74096680 232.21597290 147.28215027 233.23724365 176.09869385" stroke-width="1.00000000" fill="rgb(255, 255, 255)" opacity="1.0" />
    <path d="M 94.94586945 209.63546753 C 95.06311798 221.40522766 95.25633240 228.61416626 87.14695740 230.60981750 C 75.40141296 230.42990112 66.84054565 228.03096008 60.74196625 223.78417969 C 58.51772690 217.06141663 61.08992004 209.74594116 60.31394196 197.40753174 C 60.43966293 187.91540527 60.62012482 179.37260437 60.28856659 170.21371460 C 60.20606995 159.60972595 60.56949234 150.53390503 60.24256897 142.41293335 C 61.34915161 128.54507446 57.30852509 122.74549866 66.02291870 123.74614716 C 77.58406830 123.76866150 86.24728394 122.84690857 93.90675354 124.71207428 C 97.56922913 135.27206421 94.99386597 141.48042297 96.61212158 151.19361877 C 96.92262268 160.68925476 97.14546204 167.58067322 96.38980103 179.39189148 C 96.05373383 190.20549011 95.31348419 200.44856262 94.94586945 209.63546753" stroke-width="1.00000000" fill="rgb(212, 39, 51)" opacity="1.0" />
    <path d="M 127.60813904 207.71348572 C 127.67465973 219.29606628 128.97096252 227.54466248 120.96596527 229.80041504 C 110.28791809 230.88015747 101.81040955 228.63999939 96.39275360 223.97698975 C 94.12316895 219.14579773 95.88113403 211.09536743 95.17302704 198.25323486 C 95.33800507 188.14450073 95.30744171 179.50753784 95.22015381 170.04449463 C 95.56935883 157.66934204 95.32899475 151.21176147 95.28179932 142.51205444 C 95.45267487 127.51277161 93.73937225 123.41590118 101.57453156 122.56788635 C 112.25727844 121.74150085 120.87168121 122.82403564 129.58892822 121.85981750 C 134.18626404 129.42315674 128.50758362 137.64717102 129.53630066 148.72053528 C 129.28414917 158.79853821 129.56173706 168.04393005 128.88185120 177.64529419 C 128.37014771 188.87983704 127.87757874 198.37693787 127.60813904 207.71348572" stroke-width="1.00000000" fill="rgb(4, 151, 242)" opacity="1.0" />
    <path d="M 165.46102905 173.47314453 C 166.19532776 182.28890991 164.79339600 190.94088745 165.54379272 201.73426819 C 164.67625427 214.55499268 167.67614746 219.99511719 162.14988708 230.09472656 C 158.06752014 236.88430786 145.60577393 236.75331116 136.71392822 231.68566895 C 125.80082703 227.67654419 125.29357910 222.66442871 125.43598938 209.45854187 C 125.22611237 194.87551880 126.70395660 189.30813599 126.53611755 179.21688843 C 126.60636902 161.50933838 126.87998962 166.05920410 126.23267365 153.02844238 C 127.44850159 144.49975586 125.57041931 135.40750122 124.70370483 124.17970276 C 132.77311707 120.61000824 145.64343262 124.22783661 154.11372375 123.63442230 C 169.15518188 122.52235413 165.01870728 129.01908875 165.31951904 142.14935303 C 165.78457642 155.01617432 165.41920471 158.92459106 165.46102905 173.47314453" stroke-width="1.00000000" fill="rgb(4, 109, 204)" opacity="1.0" />
  </g>
<animate attributeName="opacity" calcMode="discrete" dur="5.250000s" repeatCount="indefinite" keyTimes="0.000000;0.047619;0.095238;0.142857;0.190476;0.238095;0.285714;0.333333;0.380952;0.428571;0.476190;0.523810;0.571429;0.619048;0.666667;0.714286;0.761905;0.809524;0.857143;0.904762;0.952381;1" values="0;0;0;0;0;0;0;1;0;0;0;0;0;0;0;0;0;0;0;0;0;0" /></g><g id="frame_8" style="opacity:0"><g>
    <path d="M 233.24917603 176.92430115 C 237.80294800 216.14257812 224.72738647 234.25765991 192.28215027 232.59265137 C 158.80389404 235.44607544 123.88403320 233.94290161 94.58641052 233.70043945 C 54.70811844 232.50047302 22.59162140 237.41674805 1.12743378 226.39318848 C -16.12599182 203.34057617 -10.22094727 170.03158569 -12.84148407 132.00538635 C -12.36351013 96.80758667 -14.72753143 63.32235718 -14.13644409 29.15742493 C -10.84037018 1.49372101 6.99495697 -9.58617401 36.67900848 -11.96232605 C 69.81666565 -11.26862335 100.81195831 -11.64437866 132.69134521 -12.79665375 C 169.01077271 -11.45729065 200.17529297 -15.63747406 223.59069824 -9.04205322 C 239.43650818 8.42922974 232.02967834 38.62876129 232.31849670 73.93663025 C 231.34460449 111.26595306 232.01939392 146.64131165 233.24917603 176.92430115" stroke-width="1.00000000" fill="rgb(255, 255, 255)" opacity="1.0" />
    <path d="M 94.83599091 210.01882935 C 95.06657410 221.50286865 94.47365570 229.17547607 86.40759277 231.03454590 C 74.60034180 231.42216492 65.92969513 229.50143433 60.79232788 224.12944031 C 59.60370636 216.54116821 60.97686005 210.40783691 60.29277802 197.73791504 C 60.41181946 188.32464600 60.52463150 179.51536560 60.32292175 170.37716675 C 60.37676620 159.03871155 60.53757095 150.97856140 60.26843262 142.73056030 C 61.41248703 128.87635803 57.26446152 122.84468079 66.04080963 123.82740021 C 77.56742096 123.98825073 86.16909027 122.95025635 93.85855865 124.77809143 C 97.32955933 135.55688477 94.81373596 141.74781799 96.48385620 151.50349426 C 96.82124329 160.18978882 97.04980469 168.12641907 96.32846832 179.66229248 C 96.02980042 190.53614807 95.29235840 200.93702698 94.83599091 210.01882935" stroke-width="1.00000000" fill="rgb(212, 39, 51)" opacity="1.0" />
    <path d="M 126.80928802 207.84347534 C 127.05236053 218.82705688 128.50325012 226.68260193 121.11751556 229.39582825 C 111.72231293 230.91943359 102.44629669 228.96485901 96.64488983 224.64390564 C 93.71883392 220.82397461 95.99427795 212.80937195 95.19170380 200.62203979 C 95.25868225 190.98480225 95.12197113 182.61688232 95.17926788 173.51416016 C 95.60646057 160.98008728 95.24040985 155.74359131 95.28836823 146.66970825 C 95.17330170 131.28416443 94.65612793 130.51684570 100.94877625 126.23618317 C 109.12729645 121.15383911 120.88717651 122.39321899 127.50428772 123.79948425 C 132.19552612 131.36227417 126.80942535 140.14962769 127.90538025 150.07289124 C 127.85160065 160.01138306 128.23175049 168.79933167 127.81430054 178.42503357 C 127.31159973 189.51467896 126.74105835 198.48789978 126.80928802 207.84347534" stroke-width="1.00000000" fill="rgb(4, 151, 242)" opacity="1.0" />
    <path d="M 165.37437439 173.89701843 C 165.97656250 182.51582336 164.62086487 191.32785034 165.32350159 202.06248474 C 164.41624451 215.23779297 167.53915405 220.28149414 161.50471497 230.48974609 C 157.31260681 237.29525757 145.74768066 236.68347168 136.02729797 231.30686951 C 124.92636108 226.84817505 125.42434692 221.36428833 125.45571899 208.57873535 C 125.24264526 193.63720703 126.70800018 188.19413757 126.53781128 178.20666504 C 126.59709167 160.37667847 126.91938019 164.99713135 126.34240723 151.89001465 C 127.50949097 143.67445374 125.39710236 133.77645874 124.53702545 123.28468323 C 132.87936401 121.15128326 146.01425171 124.95027161 154.36840820 124.31816101 C 169.51083374 123.13420105 164.62197876 128.89282227 165.30186462 142.31889343 C 165.91381836 155.60589600 165.18591309 159.19285583 165.37437439 173.89701843" stroke-width="1.00000000" fill="rgb(4, 109, 204)" opacity="1.0" />
  </g>
<animate attributeName="opacity" calcMode="discrete" dur="5.250000s" repeatCount="indefinite" keyTimes="0.000000;0.047619;0.095238;0.142857;0.190476;0.238095;0.285714;0.333333;0.380952;0.428571;0.476190;0.523810;0.571429;0.619048;0.666667;0.714286;0.761905;0.809524;0.857143;0.904762;0.952381;1" values="0;0;0;0;0;0;0;0;1;0;0;0;0;0;0;0;0;0;0;0;0;0" /></g><g id="frame_9" style="opacity:0"><g>
    <path d="M 233.64794922 177.98428345 C 238.02749634 217.12255859 224.52297974 234.95297241 191.31219482 233.86715698 C 157.88204956 237.27508545 124.40492249 234.76068115 94.34426117 235.16070557 C 54.05754852 233.45767212 22.20845795 236.29257202 -0.19755554 225.24604797 C -16.87151337 202.80926514 -11.14108276 170.40380859 -13.47705078 131.42213440 C -12.72435760 94.58526611 -15.14697266 60.61400223 -13.96448517 27.35671997 C -10.04279327 1.10551453 7.15788269 -9.82978058 37.79502869 -12.54425812 C 71.07890320 -11.64751434 101.80539703 -11.61407471 133.69097900 -13.04903412 C 170.12194824 -11.41909790 201.15966797 -15.57596588 224.37182617 -8.42903900 C 240.08114624 9.48409271 232.67793274 39.49539948 232.94683838 74.73673248 C 231.86714172 111.50345612 232.44198608 146.94041443 233.64794922 177.98428345" stroke-width="1.00000000" fill="rgb(255, 255, 255)" opacity="1.0" />
    <path d="M 95.06204224 210.20066833 C 95.20701599 221.58782959 94.20951080 229.20875549 86.11971283 231.19992065 C 74.43115234 231.81909180 65.51470184 230.11462402 60.80896759 224.31619263 C 59.69758606 216.63249207 60.85788727 210.48184204 60.24853134 197.78901672 C 60.34985352 188.45022583 60.44931793 179.63171387 60.28686523 170.31842041 C 60.38282013 158.95182800 60.51998901 150.84266663 60.26802826 142.78894043 C 61.29034805 128.67100525 57.40015793 122.85926056 66.12700653 123.77566528 C 77.63562012 123.86354065 86.31078339 122.87870789 93.92290497 124.71695709 C 97.00016785 135.69738770 94.42768097 141.97341919 96.23637390 151.54663086 C 96.72495270 160.19322205 97.07739258 168.29162598 96.44522858 179.73651123 C 96.22506714 190.66604614 95.59710693 201.12576294 95.06204224 210.20066833" stroke-width="1.00000000" fill="rgb(212, 39, 51)" opacity="1.0" />
    <path d="M 127.41885376 207.44970703 C 127.71069336 218.41528320 129.27307129 226.65501404 121.89820862 229.12565613 C 112.61100769 230.70564270 103.21089172 228.59413147 97.04943848 224.74891663 C 93.67127228 220.87477112 96.04393768 213.01620483 95.15220642 200.87481689 C 95.23995209 191.12620544 95.14009094 182.95376587 95.15720367 173.85278320 C 95.56898499 161.32266235 95.10826111 156.13885498 95.24092865 146.83546448 C 95.03386688 131.31195068 95.31266785 130.99612427 101.34304810 126.84846497 C 109.49253845 121.96479797 120.16925049 123.29458618 127.28221130 123.56486511 C 132.07327271 130.80183411 126.73393250 139.53060913 128.29431152 149.63510132 C 128.49813843 159.28356934 128.90100098 168.62992859 128.45254517 178.23300171 C 127.75516510 189.87145996 127.57447052 197.40672302 127.41885376 207.44970703" stroke-width="1.00000000" fill="rgb(4, 151, 242)" opacity="1.0" />
    <path d="M 165.17288208 174.12995911 C 165.61445618 182.74185181 163.98266602 191.06372070 164.78776550 202.26608276 C 163.98405457 214.40771484 166.86015320 220.92884827 161.86416626 230.92689514 C 158.10409546 237.49624634 146.28170776 236.16235352 136.37207031 231.47833252 C 125.06496429 227.33940125 125.56524658 222.20832825 125.45355988 208.94812012 C 125.09409332 194.20860291 126.63501740 188.37959290 126.51207733 178.60919189 C 126.55881500 160.85711670 126.78641510 165.45239258 126.26193237 152.29104614 C 127.56813812 143.80570984 125.35133362 134.21618652 124.67071533 123.75087738 C 133.50704956 121.95944977 146.52441406 124.42191315 154.59677124 124.30274963 C 169.90945435 123.93834686 164.28796387 129.31584167 164.63716125 142.78305054 C 165.64259338 155.85598755 165.43592834 159.66117859 165.17288208 174.12995911" stroke-width="1.00000000" fill="rgb(4, 109, 204)" opacity="1.0" />
  </g>
<animate attributeName="opacity" calcMode="discrete" dur="5.250000s" repeatCount="indefinite" keyTimes="0.000000;0.047619;0.095238;0.142857;0.190476;0.238095;0.285714;0.333333;0.380952;0.428571;0.476190;0.523810;0.571429;0.619048;0.666667;0.714286;0.761905;0.809524;0.857143;0.904762;0.952381;1" values="0;0;0;0;0;0;0;0;0;1;0;0;0;0;0;0;0;0;0;0;0;0" /></g><g id="frame_10" style="opacity:0"><g>
    <path d="M 234.19525146 178.42398071 C 238.10325623 217.26776123 224.13644409 235.37976074 190.59823608 234.98788452 C 157.31201172 238.79895020 123.97404480 235.88092041 93.69937897 236.52258301 C 53.74424744 234.56092834 20.71975708 236.66458130 -0.51254272 224.25729370 C -16.67040253 201.58349609 -11.69525146 169.28952026 -13.60577393 130.02456665 C -12.84665680 92.81101227 -15.40953827 58.19135666 -14.19290161 25.82489777 C -9.99041748 0.00637054 7.44551849 -10.89754486 38.37934875 -13.06919098 C 71.94987488 -11.90074921 102.65353394 -11.79658508 134.22219849 -13.32031250 C 170.53297424 -11.68501282 201.74237061 -15.72398376 224.95120239 -8.47191620 C 240.71072388 10.18398285 232.92749023 40.05341339 233.37118530 75.25156403 C 232.47448730 111.31488800 233.00669861 147.50698853 234.19525146 178.42398071" stroke-width="1.00000000" fill="rgb(255, 255, 255)" opacity="1.0" />
    <path d="M 95.08113098 210.24101257 C 95.19786072 221.27789307 94.17205811 229.29159546 86.16471863 231.27505493 C 74.79380798 232.41308594 65.64376831 230.92660522 61.02603912 224.82019043 C 59.80005646 217.41677856 60.87843323 211.01605225 60.32764053 198.43545532 C 60.40838242 189.15945435 60.48789597 180.34780884 60.30031586 170.84754944 C 60.40102768 159.44447327 60.48084641 151.64010620 60.27465057 143.51258850 C 61.42257690 129.21420288 57.36217499 123.43948364 66.08609009 124.20628357 C 77.61417389 124.46136475 85.73609924 123.95372009 93.93849945 124.63278198 C 96.90073395 135.44445801 94.01211548 142.37969971 95.94151306 151.37806702 C 96.45578003 159.85729980 96.87425995 168.38027954 96.36284637 179.61283875 C 96.17164612 190.83227539 95.68623352 200.75527954 95.08113098 210.24101257" stroke-width="1.00000000" fill="rgb(212, 39, 51)" opacity="1.0" />
    <path d="M 127.75337219 208.34182739 C 126.72494507 219.12963867 129.00979614 220.99987793 121.94734955 229.93663025 C 114.28286743 233.09312439 107.54564667 231.54702759 96.84193420 228.57855225 C 92.19197083 225.68399048 96.45655060 218.60971069 95.23889923 208.74267578 C 95.36555481 196.38404846 94.77774048 191.50196838 95.13724518 182.50837708 C 96.28419495 168.03440857 93.47836304 166.11222839 97.11353302 155.43032837 C 105.55938721 146.63977051 113.91189575 152.96754456 109.56039429 141.30499268 C 106.41574097 127.54060364 110.92895508 120.27384949 120.81202698 124.55184937 C 129.57983398 129.91262817 123.55010223 142.51101685 125.41526031 150.11267090 C 126.90364838 161.28234863 130.56600952 168.81243896 129.08175659 176.75880432 C 128.50942993 191.40708923 128.44711304 192.85098267 127.75337219 208.34182739" stroke-width="1.00000000" fill="rgb(4, 151, 242)" opacity="1.0" />
    <path d="M 165.14118958 173.36949158 C 165.60263062 182.06488037 163.98295593 190.52775574 164.87088013 201.64859009 C 164.02018738 213.50990295 166.82408142 220.26289368 162.37347412 230.64695740 C 158.88139343 237.33613586 147.19639587 236.10418701 136.96293640 231.55123901 C 126.67765808 227.54649353 124.99679565 223.62512207 125.48666382 209.09880066 C 124.95358276 193.89033508 126.34395599 188.38093567 126.12352753 178.68019104 C 126.04213715 160.95664978 126.23477936 165.61383057 125.52640533 152.28192139 C 126.56037903 143.95962524 123.80777740 133.89038086 123.97472382 123.90006256 C 133.69992065 122.49738312 146.16627502 124.61546326 153.70333862 124.55497742 C 169.55073547 123.68959045 164.83532715 128.75741577 164.47691345 142.17184448 C 165.65821838 154.86810303 165.64482117 158.80838013 165.14118958 173.36949158" stroke-width="1.00000000" fill="rgb(4, 109, 204)" opacity="1.0" />
  </g>
<animate attributeName="opacity" calcMode="discrete" dur="5.250000s" repeatCount="indefinite" keyTimes="0.000000;0.047619;0.095238;0.142857;0.190476;0.238095;0.285714;0.333333;0.380952;0.428571;0.476190;0.523810;0.571429;0.619048;0.666667;0.714286;0.761905;0.809524;0.857143;0.904762;0.952381;1" values="0;0;0;0;0;0;0;0;0;0;1;0;0;0;0;0;0;0;0;0;0;0" /></g><g id="frame_11" style="opacity:0"><g>
    <path d="M 234.93156433 178.95367432 C 238.34942627 217.04589844 222.75973511 236.30659485 189.39376831 236.45588684 C 156.92794800 240.62373352 123.35356903 237.18397522 92.61534882 237.91520691 C 53.10063553 235.88323975 20.04208374 236.92639160 -1.15473938 223.74543762 C -16.86199951 200.82800293 -12.24147797 168.32519531 -13.79318237 129.12548828 C -12.86797333 90.54823303 -15.57775879 55.99900436 -14.14031982 24.77828217 C -9.32006073 -0.29784393 8.58895874 -11.17066956 39.59896851 -13.43090820 C 73.10684967 -12.13990784 104.11146545 -11.89905548 135.43020630 -13.44578552 C 172.19885254 -11.78141785 203.25640869 -15.55069733 225.95802307 -8.52169800 C 241.59838867 11.35456848 233.54779053 40.91252899 234.13806152 76.08834076 C 233.33319092 111.20195770 233.79066467 147.83868408 234.93156433 178.95367432" stroke-width="1.00000000" fill="rgb(255, 255, 255)" opacity="1.0" />
    <path d="M 94.57700348 209.80950928 C 95.40218353 220.59597778 94.03092957 229.97427368 86.30303955 231.25942993 C 74.70344543 232.45858765 66.04019928 231.00575256 61.01086426 225.09011841 C 59.56608963 217.69277954 60.85674286 211.10937500 60.33251953 198.69068909 C 60.46509552 189.38992310 60.61089706 180.61865234 60.32702637 171.16595459 C 60.44104767 160.09896851 60.53894424 151.76033020 60.30752563 143.71781921 C 61.58368683 129.76672363 57.11086655 123.56477356 65.77044678 124.30084229 C 77.01316071 124.52624512 85.83980560 124.16776276 94.06048584 124.62718201 C 97.18380737 134.86154175 93.42626953 141.14739990 94.56127167 151.41926575 C 94.31078339 158.11907959 94.56555176 168.89517212 94.40650940 179.76136780 C 93.92404175 192.21614075 94.57689667 199.07603455 94.57700348 209.80950928" stroke-width="1.00000000" fill="rgb(212, 39, 51)" opacity="1.0" />
    <path d="M 127.32564545 208.48751831 C 126.07643127 215.62535095 127.82199097 228.77713013 122.41802979 236.24055481 C 114.98776245 239.84698486 115.03996277 242.36009216 97.76493073 238.24398804 C 90.21072388 233.64578247 95.23675537 229.53851318 95.15909576 220.34030151 C 95.64110565 205.72314453 95.08424377 201.68022156 94.21400452 191.71141052 C 95.57836914 178.43858337 106.49678040 182.40975952 112.57163239 175.03671265 C 115.10601807 162.98878479 114.73963165 161.04107666 113.64381409 148.30317688 C 113.88926697 140.09248352 108.88082886 127.46438599 117.03385925 122.11993408 C 127.27444458 128.17089844 123.73556519 138.28512573 124.89721680 148.98187256 C 124.27123260 157.72012329 125.92588806 165.61567688 128.55267334 178.19316101 C 128.89233398 190.43504333 128.24900818 193.49087524 127.32564545 208.48751831" stroke-width="1.00000000" fill="rgb(4, 151, 242)" opacity="1.0" />
    <path d="M 164.41038513 174.32460022 C 165.09509277 182.95997620 163.85981750 191.87747192 164.73291016 202.38574219 C 163.36032104 215.93527222 167.23194885 220.57708740 161.40728760 231.48562622 C 156.72091675 238.45994568 146.77218628 237.08869934 135.90863037 231.73715210 C 126.30412292 227.37234497 124.60043335 222.84674072 125.50446320 208.61285400 C 124.98893738 193.05186462 125.98323059 187.55567932 125.54805756 178.22259521 C 124.73186493 160.15968323 125.15769958 165.07305908 124.33092499 151.69982910 C 125.21521759 143.97167969 122.68199921 132.95822144 122.90359497 123.50976562 C 132.49604797 122.27478790 145.20195007 123.54397583 153.11199951 123.69830322 C 168.18846130 123.80401611 164.10057068 130.36267090 164.38943481 142.98297119 C 164.76655579 155.33882141 164.51559448 159.62919617 164.41038513 174.32460022" stroke-width="1.00000000" fill="rgb(4, 109, 204)" opacity="1.0" />
  </g>
<animate attributeName="opacity" calcMode="discrete" dur="5.250000s" repeatCount="indefinite" keyTimes="0.000000;0.047619;0.095238;0.142857;0.190476;0.238095;0.285714;0.333333;0.380952;0.428571;0.476190;0.523810;0.571429;0.619048;0.666667;0.714286;0.761905;0.809524;0.857143;0.904762;0.952381;1" values="0;0;0;0;0;0;0;0;0;0;0;1;0;0;0;0;0;0;0;0;0;0" /></g><g id="frame_12" style="opacity:0"><g>
    <path d="M 235.31269836 179.73281860 C 238.17892456 217.40582275 221.21937561 236.45085144 188.01605225 237.39128113 C 156.40879822 241.78147888 122.55873108 238.03622437 91.27481079 238.87655640 C 51.55258560 236.91442871 19.56217194 237.05122375 -1.83717346 223.20732117 C -17.10140228 200.14517212 -12.66473389 167.77493286 -14.14688110 128.45756531 C -13.23079681 89.50486755 -16.14440155 55.00553894 -14.02549744 23.89601898 C -8.42930603 -0.22103882 9.80237579 -11.38059235 40.97663116 -13.62878418 C 75.04335022 -12.17269135 104.97708893 -12.18135071 136.75053406 -13.53877258 C 172.91891479 -11.88845825 204.62518311 -15.72453308 226.90240479 -8.24940491 C 241.92855835 11.37601471 234.07752991 42.40201569 234.62985229 76.91557312 C 233.86837769 111.59764099 234.27282715 147.90185547 235.31269836 179.73281860" stroke-width="1.00000000" fill="rgb(255, 255, 255)" opacity="1.0" />
    <path d="M 94.41790771 208.83226013 C 95.06013489 220.12168884 94.39627075 229.19046021 86.32454681 231.36215210 C 74.38740540 232.39300537 67.11550140 230.78747559 60.94571686 225.34091187 C 59.74331665 217.05848694 60.88170242 211.59121704 60.31101990 198.83399963 C 60.44537354 189.61064148 60.65220642 180.66195679 60.39834595 171.22000122 C 60.44128418 159.87751770 60.49330902 152.09524536 60.28819656 143.69563293 C 61.56550598 129.92684937 57.07894516 123.76821136 66.09878540 124.40894318 C 78.76712036 124.61682129 84.82153320 124.41441345 93.46154022 124.64016724 C 96.14736176 135.30935669 93.62039948 141.55177307 94.58692169 151.61744690 C 94.43540955 158.14801025 94.65716553 168.59608459 94.46114349 179.61026001 C 94.32182312 191.21832275 94.52893829 199.45285034 94.41790771 208.83226013" stroke-width="1.00000000" fill="rgb(212, 39, 51)" opacity="1.0" />
    <path d="M 130.86256409 218.73274231 C 128.64581299 229.47045898 130.93170166 238.75614929 117.79859161 247.04385376 C 109.44138336 249.17970276 104.19907379 254.69528198 90.44496918 251.68516541 C 83.74964905 249.04165649 95.14417267 243.80377197 95.19993591 234.94726562 C 95.02159119 222.22947693 96.70304108 228.09138489 107.70214844 223.24343872 C 117.74727631 218.68988037 115.18607330 203.39801025 115.35468292 193.82513428 C 115.85421753 172.87805176 114.84400940 175.80409241 115.15109253 160.15588379 C 116.85527802 151.68991089 112.25309753 137.03887939 116.42558289 122.76739502 C 126.74823761 122.00968170 125.80734253 130.35446167 128.50221252 146.60682678 C 130.21109009 158.55259705 130.93420410 169.08273315 133.13548279 180.22576904 C 134.62495422 193.71459961 133.22743225 201.71955872 130.86256409 218.73274231" stroke-width="1.00000000" fill="rgb(4, 151, 242)" opacity="1.0" />
    <path d="M 164.43168640 175.07440186 C 165.07157898 183.72789001 163.86004639 192.64544678 164.74331665 203.11416626 C 163.25196838 216.79336548 167.23867798 221.39672852 161.00859070 232.12527466 C 156.06594849 238.98033142 146.34556580 237.50938416 135.52752686 231.89471436 C 126.13554382 227.41378784 124.66845703 222.64331055 125.54986572 208.49877930 C 124.93188477 192.92594910 125.82124329 187.41049194 125.30081177 178.15866089 C 124.36828613 160.08944702 124.78708649 165.03991699 124.10321808 151.60485840 C 125.16661072 143.87886047 122.99938202 132.93026733 123.37219238 123.36928558 C 133.01182556 122.01919556 145.69645691 123.13756561 153.59394836 123.56523895 C 168.44323730 124.39095306 163.68205261 131.37527466 164.35279846 143.73538208 C 164.68586731 156.09907532 164.53958130 160.34254456 164.43168640 175.07440186" stroke-width="1.00000000" fill="rgb(4, 109, 204)" opacity="1.0" />
  </g>
<animate attributeName="opacity" calcMode="discrete" dur="5.250000s" repeatCount="indefinite" keyTimes="0.000000;0.047619;0.095238;0.142857;0.190476;0.238095;0.285714;0.333333;0.380952;0.428571;0.476190;0.523810;0.571429;0.619048;0.666667;0.714286;0.761905;0.809524;0.857143;0.904762;0.952381;1" values="0;0;0;0;0;0;0;0;0;0;0;0;1;0;0;0;0;0;0;0;0;0" /></g><g id="frame_13" style="opacity:0"><g>
    <path d="M 235.72052002 180.02281189 C 238.27531433 217.32147217 220.57537842 236.80015564 187.41770935 238.33242798 C 156.43392944 242.78073120 122.64562225 238.99009705 90.67251587 239.89945984 C 51.07717514 237.99554443 19.78371429 237.17962646 -1.66407776 222.79003906 C -17.03783417 199.47283936 -12.69232178 167.00601196 -14.11048126 127.93966675 C -13.18395233 88.65642548 -16.97713470 54.66458893 -14.59941101 23.51244354 C -8.51509857 -0.65982819 10.96772003 -11.66219330 41.88179016 -13.77539825 C 76.05862427 -12.31863403 106.27616882 -12.59733582 137.87918091 -13.90383148 C 174.06622314 -12.29421997 204.97952271 -16.41084290 227.30728149 -8.66565704 C 242.00753784 11.66633606 234.25953674 42.81312561 234.90502930 77.05336761 C 234.24035645 111.61615753 234.68267822 147.88423157 235.72052002 180.02281189" stroke-width="1.00000000" fill="rgb(255, 255, 255)" opacity="1.0" />
    <path d="M 94.38920593 209.15536499 C 94.96978760 220.67358398 94.86972809 229.50764465 86.72509766 232.11601257 C 74.86354065 232.99273682 67.66238403 231.19244385 61.23576355 226.00140381 C 59.64733505 217.98590088 60.85636902 211.94239807 60.34538269 199.21414185 C 60.44187927 189.93330383 60.65018082 181.04557800 60.36734390 171.44642639 C 60.42351532 160.06291199 60.50199127 152.22174072 60.29920197 143.85128784 C 61.50290680 129.72525024 57.09447861 123.75495911 66.15509796 124.37287140 C 78.94040680 124.58793640 84.86904907 124.36328888 93.49221802 124.66697693 C 96.01084137 135.45759583 93.61775970 142.24914551 94.62055969 151.76095581 C 94.46208191 158.85330200 94.73888397 168.61865234 94.50034332 179.84632874 C 94.38996124 191.57539368 94.69091797 199.16714478 94.38920593 209.15536499" stroke-width="1.00000000" fill="rgb(212, 39, 51)" opacity="1.0" />
    <path d="M 132.13314819 224.65740967 C 129.97497559 236.62861633 128.90002441 244.17164612 113.50214386 251.16192627 C 101.91945648 252.11485291 96.23526001 258.80395508 87.51109314 256.02511597 C 85.04603577 253.39950562 98.20562744 246.69714355 98.52484894 237.99617004 C 99.41935730 227.60392761 101.59730530 237.35385132 110.45592499 233.95684814 C 120.00106049 230.38281250 116.93070221 212.61618042 117.36630249 201.97145081 C 118.09173584 179.03764343 117.01888275 182.20474243 117.77204895 165.06222534 C 118.98519897 157.59487915 116.50855255 141.76322937 118.24701691 123.85941315 C 126.20255280 119.15108490 127.80112457 129.74966431 129.87776184 147.02349854 C 131.36004639 160.38742065 132.78613281 170.41061401 135.74774170 182.85530090 C 137.26834106 197.78421021 135.81469727 204.62979126 132.13314819 224.65740967" stroke-width="1.00000000" fill="rgb(4, 151, 242)" opacity="1.0" />
    <path d="M 164.28593445 175.31547546 C 164.93026733 184.00143433 163.77735901 193.03947449 164.67080688 203.42240906 C 163.16867065 217.29895020 167.18568420 221.61849976 160.60049438 232.35684204 C 155.18360901 239.37896729 146.14198303 237.80166626 134.97734070 231.77725220 C 125.42644501 226.97579956 124.86524963 221.81379700 125.60308838 208.06356812 C 124.96780396 192.24118042 125.87195587 187.43969727 125.31918335 177.52992249 C 124.35563660 159.84906006 124.77159119 164.46684265 124.12637329 151.06060791 C 125.18701935 143.39012146 122.63588715 132.05187988 123.47914886 122.99219513 C 133.38546753 122.06633759 145.93861389 123.07035065 153.88133240 123.39219666 C 168.64166260 124.50564575 163.44767761 132.14978027 164.41693115 143.85824585 C 164.54859924 156.10427856 164.46144104 160.54634094 164.28593445 175.31547546" stroke-width="1.00000000" fill="rgb(4, 109, 204)" opacity="1.0" />
  </g>
<animate attributeName="opacity" calcMode="discrete" dur="5.250000s" repeatCount="indefinite" keyTimes="0.000000;0.047619;0.095238;0.142857;0.190476;0.238095;0.285714;0.333333;0.380952;0.428571;0.476190;0.523810;0.571429;0.619048;0.666667;0.714286;0.761905;0.809524;0.857143;0.904762;0.952381;1" values="0;0;0;0;0;0;0;0;0;0;0;0;0;1;0;0;0;0;0;0;0;0" /></g><g id="frame_14" style="opacity:0"><g>
    <path d="M 236.14387512 181.06420898 C 237.77671814 217.21472168 220.18363953 237.18064880 186.72613525 239.49107361 C 156.45030212 243.93348694 122.46704102 240.18644714 89.83703613 241.22616577 C 50.90608978 239.64698792 18.55808258 238.24407959 -1.67832947 222.94842529 C -16.65092468 199.55792236 -12.90047455 167.31993103 -14.22532654 127.67931366 C -13.32423401 88.76454163 -17.88844299 54.57077408 -15.08694458 23.17745209 C -8.02532196 -1.24985504 11.46148682 -12.56479645 43.06314850 -13.63338470 C 77.22619629 -12.18426514 107.40395355 -12.98955536 139.19668579 -13.96084595 C 175.38822937 -12.51442719 205.66442871 -16.49468994 227.98980713 -8.64323425 C 242.17704773 12.26015472 234.57798767 43.57666779 235.29187012 77.04991150 C 234.63610840 111.61762238 235.11486816 147.05577087 236.14387512 181.06420898" stroke-width="1.00000000" fill="rgb(255, 255, 255)" opacity="1.0" />
    <path d="M 94.34803772 209.26805115 C 94.90264893 220.89057922 94.85556793 229.48497009 86.72985077 232.25946045 C 74.92253876 233.17323303 67.68295288 231.38009644 61.29008484 226.19706726 C 59.64235687 218.33203125 60.87699890 211.98475647 60.37588120 199.37184143 C 60.47873688 190.00408936 60.69045258 181.18492126 60.41930389 171.64811707 C 60.49240875 160.29489136 60.56266022 152.35617065 60.36429596 144.00531006 C 61.57674789 129.92221069 57.10809708 123.96061707 66.17530823 124.53623962 C 79.00965881 124.68524933 84.82089996 124.44554138 93.53234100 124.76936340 C 96.00353241 135.56349182 93.58691406 142.33975220 94.59807587 151.87178040 C 94.43168640 158.94500732 94.71171570 168.72879028 94.47135925 179.96202087 C 94.35925293 191.68176270 94.64196014 199.31269836 94.34803772 209.26805115" stroke-width="1.00000000" fill="rgb(212, 39, 51)" opacity="1.0" />
    <path d="M 131.93495178 224.49893188 C 129.78678894 236.76039124 128.02903748 242.94738770 112.84006500 249.50434875 C 101.68887329 251.19833374 97.59137726 258.41555786 88.81674957 255.35559082 C 85.75457764 252.15650940 98.62614441 245.23014832 98.91065979 236.79174805 C 100.28211212 227.39547729 102.23882294 237.37490845 111.21280670 232.84971619 C 121.08592987 229.53762817 117.99093628 211.95761108 118.34766388 201.12583923 C 118.86461639 178.51878357 117.73769379 181.95031738 118.49476624 164.61387634 C 118.76965332 158.74671936 117.70752716 142.30093384 118.52846527 123.90010071 C 124.57947540 119.41008759 127.36186981 130.97467041 128.78977966 148.34071350 C 129.88540649 161.39672852 131.23742676 171.21458435 135.10609436 183.00653076 C 136.60627747 196.51156616 134.93498230 205.70678711 131.93495178 224.49893188" stroke-width="1.00000000" fill="rgb(4, 151, 242)" opacity="1.0" />
    <path d="M 164.39294434 175.32264709 C 165.06736755 183.80009460 163.87063599 192.85658264 164.73025513 203.17247009 C 163.27284241 217.18765259 167.18843079 221.27420044 160.38769531 231.90914917 C 154.40795898 238.92475891 146.18418884 236.78569031 134.69589233 230.76358032 C 125.03369141 226.08697510 124.68136597 220.70561218 125.53897858 207.19934082 C 124.89272308 191.42663574 125.69750977 186.96475220 125.16713715 176.77096558 C 124.20417023 159.40567017 124.62728882 163.80473328 124.18141174 150.48184204 C 125.41242981 143.11097717 122.91555786 131.36437988 123.49987793 122.71068573 C 132.85687256 122.34546661 145.55197144 122.78541565 154.16915894 123.34912109 C 168.65724182 124.73632812 163.54112244 132.55795288 164.45782471 143.93092346 C 164.59934998 156.18449402 164.47154236 160.50314331 164.39294434 175.32264709" stroke-width="1.00000000" fill="rgb(4, 109, 204)" opacity="1.0" />
  </g>
<animate attributeName="opacity" calcMode="discrete" dur="5.250000s" repeatCount="indefinite" keyTimes="0.000000;0.047619;0.095238;0.142857;0.190476;0.238095;0.285714;0.333333;0.380952;0.428571;0.476190;0.523810;0.571429;0.619048;0.666667;0.714286;0.761905;0.809524;0.857143;0.904762;0.952381;1" values="0;0;0;0;0;0;0;0;0;0;0;0;0;0;1;0;0;0;0;0;0;0" /></g><g id="frame_15" style="opacity:0"><g>
    <path d="M 237.19610596 182.21112061 C 236.81759644 217.14257812 219.23324585 237.63204956 186.35479736 240.73745728 C 156.22894287 245.65469360 122.49770355 241.89068604 89.35464478 243.09472656 C 50.24209213 241.93594360 19.17245483 239.74377441 -1.01351166 223.75273132 C -15.58751678 200.07878113 -12.21409607 167.83334351 -13.47103882 127.97038269 C -12.76656342 89.45442200 -17.74532318 55.52587891 -15.00882721 23.76222992 C -7.16825104 -1.06857300 12.19844818 -12.59579468 43.83247375 -13.15789032 C 78.00636292 -11.92848206 108.25014496 -13.20476532 139.95324707 -13.90516663 C 176.04841614 -12.78693390 206.56636047 -16.98265839 228.87072754 -8.57715607 C 242.49002075 12.93331909 234.76678467 44.05496216 235.97470093 76.82511902 C 235.42852783 110.91445160 236.24618530 146.76693726 237.19610596 182.21112061" stroke-width="1.00000000" fill="rgb(255, 255, 255)" opacity="1.0" />
    <path d="M 94.33489227 210.02923584 C 94.89041138 222.08020020 95.38981628 229.52334595 87.00791168 233.08941650 C 75.04053497 233.80566406 68.01786041 231.84991455 61.30546188 226.96795654 C 59.45556641 219.03646851 60.81716919 212.67333984 60.27462769 199.92041016 C 60.37471008 190.45991516 60.58901215 181.59973145 60.31003571 172.01643372 C 60.39781952 160.58854675 60.49385834 152.58052063 60.31809235 144.13836670 C 61.62055969 129.99600220 56.99385071 124.02452850 66.10077667 124.54576111 C 79.05789948 124.68467712 84.81046295 124.52851868 93.57228088 124.86805725 C 95.91532135 135.82904053 93.54472351 142.60543823 94.56777191 152.24487305 C 94.38265991 159.22714233 94.70137787 169.20693970 94.45877838 180.47660828 C 94.36659241 192.26760864 94.57981110 199.94883728 94.33489227 210.02923584" stroke-width="1.00000000" fill="rgb(212, 39, 51)" opacity="1.0" />
    <path d="M 131.83821106 223.74737549 C 129.33117676 236.31433105 126.91741943 242.25820923 112.09601593 248.47770691 C 101.06419373 250.47846985 96.86453247 257.94958496 89.11007690 254.79284668 C 87.19718170 251.31874084 99.62831116 244.07200623 99.61982727 235.95510864 C 101.53630066 228.05078125 103.60395050 237.70091248 112.34962463 231.93487549 C 122.09639740 227.94963074 118.93305206 210.92591858 119.31535339 200.01077271 C 119.87927246 177.47308350 118.86576080 180.91249084 119.51680756 163.78503418 C 119.82832336 158.11990356 119.03831482 141.91308594 119.55392456 123.66732788 C 125.57150269 120.18051910 127.59927368 131.03762817 129.06214905 148.38851929 C 130.06880188 161.05555725 131.24391174 171.30770874 135.12496948 182.46430969 C 136.26330566 195.07301331 134.81134033 205.97975159 131.83821106 223.74737549" stroke-width="1.00000000" fill="rgb(4, 151, 242)" opacity="1.0" />
    <path d="M 164.24269104 175.13807678 C 164.88624573 183.63163757 163.66015625 192.64996338 164.56927490 202.95138550 C 163.13232422 216.94824219 166.93461609 220.92658997 160.22290039 231.59400940 C 153.94073486 238.74569702 146.32565308 236.39096069 134.46868896 230.34878540 C 124.49934387 225.71017456 124.65962982 220.04351807 125.55599213 206.82597351 C 124.89201355 191.04617310 125.59410095 187.18345642 125.03317261 176.31201172 C 124.11357880 159.43997192 124.54246521 163.44564819 124.26388550 150.21710205 C 125.44880676 143.10098267 122.81094360 130.50173950 123.62915802 122.57926941 C 132.79409790 122.86714935 144.85008240 122.28272247 154.27684021 122.78031158 C 168.24894714 124.32331085 163.49565125 133.56065369 164.45404053 143.71710205 C 164.43606567 155.89538574 164.31306458 160.30976868 164.24269104 175.13807678" stroke-width="1.00000000" fill="rgb(4, 109, 204)" opacity="1.0" />
  </g>
<animate attributeName="opacity" calcMode="discrete" dur="5.250000s" repeatCount="indefinite" keyTimes="0.000000;0.047619;0.095238;0.142857;0.190476;0.238095;0.285714;0.333333;0.380952;0.428571;0.476190;0.523810;0.571429;0.619048;0.666667;0.714286;0.761905;0.809524;0.857143;0.904762;0.952381;1" values="0;0;0;0;0;0;0;0;0;0;0;0;0;0;0;1;0;0;0;0;0;0" /></g><g id="frame_16" style="opacity:0"><g>
    <path d="M 238.16610718 183.44697571 C 237.09552002 218.04924011 219.29602051 238.56069946 186.55746460 241.99063110 C 156.42919922 247.12457275 122.77817535 243.29537964 89.19553375 244.64443970 C 49.45399475 243.78796387 19.20767975 240.98568726 -0.99845886 224.61318970 C -15.38256836 200.44810486 -12.22426605 168.12701416 -13.54809570 128.21003723 C -12.98171234 89.57290649 -17.80148315 55.89640808 -15.73333740 24.28158569 C -8.08168030 -1.75045776 12.35768890 -12.82335663 43.86617279 -12.80596924 C 77.95097351 -11.72885132 108.71671295 -13.13366699 140.34983826 -13.90887451 C 176.79814148 -12.92804718 206.72819519 -17.26850891 229.32281494 -8.64778137 C 242.81604004 13.25774384 235.12051392 44.63426971 236.57466125 77.33546448 C 236.11318970 111.96693420 237.09814453 146.00379944 238.16610718 183.44697571" stroke-width="1.00000000" fill="rgb(255, 255, 255)" opacity="1.0" />
    <path d="M 94.38293457 210.36872864 C 94.83746338 222.42419434 95.44769287 230.05776978 87.08011627 233.57057190 C 75.18836975 234.35636902 68.00474548 232.32525635 61.42802811 227.38429260 C 59.57093430 219.48127747 60.86960602 212.85017395 60.37825775 200.13058472 C 60.47226715 190.63742065 60.68259048 181.75346375 60.38728333 172.15287781 C 60.46350861 160.69564819 60.55479050 152.64376831 60.34457779 144.21183777 C 61.57815933 129.96298218 57.09509659 123.99063110 66.23826599 124.55725098 C 79.30300140 124.69329834 85.05564880 124.41085815 93.67732239 124.96897888 C 95.91038513 136.05763245 93.65792847 142.88703918 94.64991760 152.46917725 C 94.45856476 159.66787720 94.72917175 169.46148682 94.49388885 180.83901978 C 94.34400177 192.78680420 94.68132019 199.97413635 94.38293457 210.36872864" stroke-width="1.00000000" fill="rgb(212, 39, 51)" opacity="1.0" />
    <path d="M 131.87242126 223.74057007 C 129.31956482 236.39147949 125.33937836 241.78030396 111.11669922 247.69528198 C 100.34965515 250.01611328 95.85393524 257.84356689 89.10021973 254.40057373 C 88.26449585 250.65113831 100.64723206 242.95776367 100.46388245 235.15908813 C 103.13351440 229.75175476 105.63162994 238.80688477 113.51442719 231.98147583 C 123.02283478 227.34414673 119.88450623 210.58027649 120.21459961 199.52708435 C 120.83513641 176.95552063 119.95178986 180.40255737 120.41070557 163.41224670 C 120.84893799 157.68746948 120.03750610 141.58267212 120.51210785 123.56786346 C 126.72460175 120.85095978 128.15089417 131.39413452 129.43530273 148.69248962 C 130.27543640 161.26461792 131.22952271 171.65330505 135.19316101 182.58711243 C 136.08882141 194.92355347 134.93563843 206.49070740 131.87242126 223.74057007" stroke-width="1.00000000" fill="rgb(4, 151, 242)" opacity="1.0" />
    <path d="M 164.37374878 175.34352112 C 164.98559570 183.92218018 163.80717468 192.91812134 164.73396301 203.10815430 C 163.28347778 217.00286865 167.16987610 220.98669434 160.44691467 231.59254456 C 153.97332764 238.64816284 146.58380127 236.37968445 134.49116516 230.70129395 C 124.64987183 226.06475830 124.91641998 220.30488586 125.52925873 207.22558594 C 124.96691895 191.40470886 125.82592773 187.33747864 125.27250671 176.72566223 C 124.29383850 159.86073303 124.73358154 163.91915894 124.12163544 150.70790100 C 125.27656555 142.90080261 122.42324829 131.83592224 123.68943787 123.10248566 C 132.71479797 123.04143524 144.36289978 122.81036377 153.82992554 123.20737457 C 167.66461182 124.10060883 163.71083069 133.59407043 164.47596741 144.19519043 C 164.47566223 156.36601257 164.41694641 160.74403381 164.37374878 175.34352112" stroke-width="1.00000000" fill="rgb(4, 109, 204)" opacity="1.0" />
  </g>
<animate attributeName="opacity" calcMode="discrete" dur="5.250000s" repeatCount="indefinite" keyTimes="0.000000;0.047619;0.095238;0.142857;0.190476;0.238095;0.285714;0.333333;0.380952;0.428571;0.476190;0.523810;0.571429;0.619048;0.666667;0.714286;0.761905;0.809524;0.857143;0.904762;0.952381;1" values="0;0;0;0;0;0;0;0;0;0;0;0;0;0;0;0;1;0;0;0;0;0" /></g><g id="frame_17" style="opacity:0"><g>
    <path d="M 238.32002258 184.01556396 C 236.71249390 218.34597778 218.51423645 239.09133911 186.19241333 242.65571594 C 156.43621826 247.81561279 122.57537079 243.85311890 88.74218750 245.22192383 C 48.71896362 244.43841553 18.78461456 241.15425110 -0.80041504 224.00508118 C -14.85812378 199.67825317 -12.19905090 167.37159729 -13.50973511 127.47615814 C -12.91239929 89.20085144 -18.32200623 55.11480331 -15.49426270 23.00246429 C -7.40122223 -2.10658264 12.62903595 -12.74491119 44.43740845 -12.87602997 C 78.31343079 -11.66374207 108.92803192 -13.20347595 140.91838074 -13.92417145 C 177.02015686 -12.91241455 207.37057495 -17.62139130 229.83734131 -8.26554108 C 242.97544861 13.72462463 235.43508911 44.95906830 236.80621338 77.88717651 C 236.31668091 112.20327759 237.27279663 147.08380127 238.32002258 184.01556396" stroke-width="1.00000000" fill="rgb(255, 255, 255)" opacity="1.0" />
    <path d="M 94.35160065 210.45748901 C 94.72541046 222.46878052 95.44591522 230.26130676 87.12534332 233.78308105 C 75.28876495 234.60070801 68.04235840 232.49784851 61.45808029 227.60638428 C 59.44723892 219.81025696 60.78975677 212.92639160 60.34091187 200.24581909 C 60.42976761 190.76565552 60.64429092 181.88357544 60.33159637 172.21792603 C 60.43455505 160.65638733 60.52935028 152.76683044 60.31697845 144.37716675 C 61.42848969 129.81838989 57.26473999 124.11096191 66.38745117 124.64257812 C 79.50893402 124.78453064 85.00329590 124.45825195 93.72041321 125.04612732 C 95.86692047 136.13391113 93.67350769 143.14968872 94.66096497 152.51461792 C 94.43351746 160.12654114 94.73191833 169.46337891 94.46779633 180.96209717 C 94.29298401 193.00233459 94.67961884 199.85290527 94.35160065 210.45748901" stroke-width="1.00000000" fill="rgb(212, 39, 51)" opacity="1.0" />
    <path d="M 132.32118225 224.55603027 C 129.66473389 236.51126099 124.51434326 241.99411011 110.64501190 247.88420105 C 100.10006714 250.49081421 94.90328979 258.02743530 89.60527802 253.88993835 C 90.15964508 250.03454590 102.47038269 242.09204102 102.32305145 234.70701599 C 106.50428772 230.74240112 109.55093384 240.21484375 116.59983826 233.45474243 C 125.38042450 228.15612793 121.38770294 211.48886108 121.24374390 200.33638000 C 121.95188904 177.84188843 121.15858459 181.20527649 121.52546692 164.41058350 C 122.23165131 158.35610962 121.09938049 142.31420898 121.68897247 124.57128906 C 128.14454651 121.84454346 129.46365356 132.86990356 130.41223145 149.79861450 C 131.12028503 162.53889465 131.89628601 172.52586365 135.66308594 183.72282410 C 136.63728333 196.49205017 135.65640259 207.20817566 132.32118225 224.55603027" stroke-width="1.00000000" fill="rgb(4, 151, 242)" opacity="1.0" />
    <path d="M 164.33866882 174.91477966 C 164.98100281 183.19479370 163.97836304 192.13722229 164.61253357 202.44107056 C 163.21932983 216.47509766 167.25396729 220.44279480 160.45582581 230.87492371 C 154.48544312 237.55580139 145.77510071 235.55184937 134.22412109 230.34246826 C 124.97181702 226.71438599 122.62705994 221.99205017 123.23237610 207.84254456 C 121.88812256 191.81442261 122.63168335 188.15325928 121.83718109 177.45950317 C 121.18739319 160.54969788 121.43969727 164.88121033 121.30978394 151.53672791 C 122.42870331 144.50032043 120.93234253 132.32092285 123.14173889 124.39714050 C 132.70387268 124.21452332 144.25776672 124.44271851 153.58853149 124.27644348 C 167.78924561 123.26020813 163.90815735 132.34283447 164.39018250 144.05212402 C 164.53367615 155.95115662 164.50961304 160.58514404 164.33866882 174.91477966" stroke-width="1.00000000" fill="rgb(4, 109, 204)" opacity="1.0" />
  </g>
<animate attributeName="opacity" calcMode="discrete" dur="5.250000s" repeatCount="indefinite" keyTimes="0.000000;0.047619;0.095238;0.142857;0.190476;0.238095;0.285714;0.333333;0.380952;0.428571;0.476190;0.523810;0.571429;0.619048;0.666667;0.714286;0.761905;0.809524;0.857143;0.904762;0.952381;1" values="0;0;0;0;0;0;0;0;0;0;0;0;0;0;0;0;0;1;0;0;0;0" /></g><g id="frame_18" style="opacity:0"><g>
    <path d="M 238.55871582 184.03759766 C 236.54467773 218.20550537 218.28625488 239.14758301 186.27374268 242.96047974 C 156.95364380 248.27505493 122.74459076 244.37081909 88.71612549 245.77484131 C 48.53186798 245.14035034 18.62503052 241.64233398 -0.42072296 223.90118408 C -14.29683685 199.41810608 -12.14817047 167.12841797 -13.57667542 127.23455811 C -13.11003876 89.09342957 -18.74776459 54.97546768 -15.79479218 22.81407928 C -7.53374481 -2.25817108 12.43218994 -12.59606171 44.24707794 -12.66255188 C 78.35811615 -11.42292786 108.58160400 -13.15151978 140.79924011 -13.88311768 C 176.66348267 -12.98566437 207.23455811 -18.00831604 229.89471436 -8.17963409 C 242.92755127 13.67435455 235.52648926 44.85031891 236.86886597 78.09751892 C 236.45578003 112.38811493 237.44738770 147.53228760 238.55871582 184.03759766" stroke-width="1.00000000" fill="rgb(255, 255, 255)" opacity="1.0" />
    <path d="M 94.37437439 210.95687866 C 94.74996185 222.95434570 95.35345459 230.55833435 86.98893738 233.75914001 C 75.16921997 234.36642456 67.85615540 232.25595093 61.52824402 227.43896484 C 59.43930054 219.45001221 60.83191681 212.59996033 60.36442566 200.08628845 C 60.42110825 190.66339111 60.65396500 181.97813416 60.34279251 172.55094910 C 60.42584610 161.77874756 60.59973526 153.10174561 60.31318283 144.65043640 C 61.40825272 130.94212341 57.10548401 124.50534821 66.22061157 126.05720520 C 79.32323456 126.92945862 85.01662445 125.75277710 93.42613220 126.52846527 C 95.84851074 137.55541992 93.77433777 144.43496704 94.60311890 153.62001038 C 94.40229797 161.81025696 94.67499542 170.17057800 94.44293213 181.74522400 C 94.28746796 193.57153320 94.66242981 200.53340149 94.37437439 210.95687866" stroke-width="1.00000000" fill="rgb(212, 39, 51)" opacity="1.0" />
    <path d="M 132.10537720 222.22052002 C 128.99171448 232.10342407 123.87147522 238.03788757 111.74958801 244.46238708 C 102.75875854 248.44149780 96.80361938 255.11389160 92.15637207 250.41004944 C 94.00000000 246.66419983 105.30879974 238.98564148 105.76103210 232.20989990 C 108.92687988 229.29766846 111.31017303 237.13650513 118.77277374 230.60575867 C 128.37915039 226.14442444 126.38118744 212.78695679 127.32720947 202.89752197 C 128.06556702 182.39105225 127.49485779 184.31929016 126.58206177 169.20620728 C 127.76824188 162.52410889 125.49066162 148.94064331 126.14122772 132.65003967 C 133.12472534 130.34542847 132.29811096 139.37251282 132.75444031 153.96936035 C 132.24485779 165.46853638 132.62721252 174.43377686 136.37510681 185.04782104 C 137.06187439 197.03092957 136.10679626 207.27374268 132.10537720 222.22052002" stroke-width="1.00000000" fill="rgb(4, 151, 242)" opacity="1.0" />
    <path d="M 163.53584290 174.97589111 C 164.01251221 183.02630615 162.99493408 191.64698792 163.78471375 201.92321777 C 162.36473083 215.19985962 166.76684570 219.83287048 160.61520386 230.34994507 C 154.49565125 236.93093872 146.04930115 233.69406128 134.61801147 229.58291626 C 124.21414948 226.18318176 125.05109406 219.80941772 125.40534973 207.11918640 C 125.10144043 192.68203735 125.60198975 185.74406433 125.45602417 177.74217224 C 125.17413330 159.85906982 125.53834534 165.10769653 125.26222992 151.73986816 C 126.08296967 145.51679993 125.03820801 132.49044800 125.52244568 124.56182861 C 134.15853882 123.96105957 145.72253418 124.53001404 154.62249756 124.24939728 C 167.55371094 123.34783173 162.86439514 133.18328857 163.46467590 144.55128479 C 163.89146423 156.71990967 163.45590210 160.68586731 163.53584290 174.97589111" stroke-width="1.00000000" fill="rgb(4, 109, 204)" opacity="1.0" />
  </g>
<animate attributeName="opacity" calcMode="discrete" dur="5.250000s" repeatCount="indefinite" keyTimes="0.000000;0.047619;0.095238;0.142857;0.190476;0.238095;0.285714;0.333333;0.380952;0.428571;0.476190;0.523810;0.571429;0.619048;0.666667;0.714286;0.761905;0.809524;0.857143;0.904762;0.952381;1" values="0;0;0;0;0;0;0;0;0;0;0;0;0;0;0;0;0;0;1;0;0;0" /></g><g id="frame_19" style="opacity:0"><g>
    <path d="M 238.72949219 184.42147827 C 236.26773071 218.90962219 218.61105347 239.76719666 186.65367126 243.55502319 C 157.12518311 248.78060913 122.93955231 244.96209717 88.78695679 246.37568665 C 48.38510132 245.85304260 19.00854492 242.12947083 -0.13391113 224.14729309 C -14.12346649 199.72457886 -12.16828918 167.32952881 -13.66751862 127.47350311 C -13.28659058 89.53710938 -19.01319122 55.16788101 -15.70143890 22.80636597 C -7.16985321 -1.76575470 12.50363922 -12.02478790 44.51294708 -12.35616302 C 79.14672852 -11.07258606 108.73931122 -12.90964508 140.95651245 -13.70949554 C 176.44056702 -12.83824921 207.42294312 -18.17460632 230.06559753 -7.79927063 C 242.84616089 13.75529480 235.63845825 45.23756409 236.98123169 78.56692505 C 236.61923218 112.73281097 237.68182373 148.76684570 238.72949219 184.42147827" stroke-width="1.00000000" fill="rgb(255, 255, 255)" opacity="1.0" />
    <path d="M 94.33026123 210.94387817 C 94.62132263 223.12457275 95.53406525 229.95468140 87.28264618 233.91404724 C 75.59603119 234.62208557 68.18325043 232.47856140 61.74446106 227.71731567 C 59.58197021 219.81930542 60.99610138 212.99639893 60.46361542 200.49734497 C 60.49238586 191.05380249 60.67349243 182.29617310 60.35190201 173.00010681 C 60.40797424 162.13398743 60.57504272 153.87622070 60.28210831 145.08605957 C 61.68541718 131.72207642 56.80924225 125.15405273 65.93777466 126.40402222 C 79.11541748 126.88146973 84.84363556 125.92535400 93.30371094 126.69882202 C 95.84989929 137.60925293 93.64659119 144.85421753 94.51506042 153.69079590 C 94.30100250 162.20008850 94.64274597 170.16273499 94.41357422 181.71304321 C 94.28852844 193.41267395 94.55287170 200.75024414 94.33026123 210.94387817" stroke-width="1.00000000" fill="rgb(212, 39, 51)" opacity="1.0" />
    <path d="M 130.59889221 218.86763000 C 127.21450806 226.24658203 122.80106354 232.43316650 113.39424133 240.06970215 C 105.92341614 246.07824707 99.75623322 250.92335510 94.42960358 246.15028381 C 95.64562988 242.37368774 105.63309479 234.35052490 107.73779297 229.61790466 C 113.26676178 228.33248901 115.77431488 235.02600098 122.42439270 228.44122314 C 131.42747498 224.13146973 130.39341736 214.08905029 131.27914429 205.52310181 C 131.99287415 188.22033691 131.12048340 189.27549744 129.61485291 175.89166260 C 131.08602905 169.16714478 128.67451477 158.32551575 128.99751282 143.84390259 C 134.67805481 141.35681152 134.10562134 147.71302795 134.56910706 159.78915405 C 133.55677795 169.53871155 133.08007812 177.06312561 135.35134888 186.78790283 C 135.44813538 197.41502380 134.70539856 206.35583496 130.59889221 218.86763000" stroke-width="1.00000000" fill="rgb(4, 151, 242)" opacity="1.0" />
    <path d="M 163.57225037 174.07160950 C 164.04606628 182.88841248 162.82543945 190.65487671 163.72026062 201.16743469 C 162.59030151 212.84497070 165.35537720 217.81492615 160.76892090 229.66571045 C 156.89312744 235.64382935 145.04740906 234.12191772 135.62956238 229.29943848 C 126.36427307 226.24600220 127.42713928 219.53497314 127.85335541 207.00183105 C 127.47227478 192.44815063 128.00581360 187.10455322 127.69348145 178.28892517 C 127.43364716 161.39900208 127.89767456 166.28753662 127.71774292 153.40512085 C 128.73426819 146.62513733 128.06314087 135.30941772 128.40020752 126.56690979 C 136.88714600 124.93312836 147.96955872 125.87421417 155.99578857 125.54006958 C 168.02310181 124.58476257 162.40417480 133.31127930 163.40979004 144.70191956 C 163.91567993 157.14012146 163.21510315 160.61994934 163.57225037 174.07160950" stroke-width="1.00000000" fill="rgb(4, 109, 204)" opacity="1.0" />
  </g>
<animate attributeName="opacity" calcMode="discrete" dur="5.250000s" repeatCount="indefinite" keyTimes="0.000000;0.047619;0.095238;0.142857;0.190476;0.238095;0.285714;0.333333;0.380952;0.428571;0.476190;0.523810;0.571429;0.619048;0.666667;0.714286;0.761905;0.809524;0.857143;0.904762;0.952381;1" values="0;0;0;0;0;0;0;0;0;0;0;0;0;0;0;0;0;0;0;1;0;0" /></g><g id="frame_20" style="opacity:0"><g>
    <path d="M 238.85681152 184.58355713 C 235.98907471 219.02806091 217.99099731 239.97892761 186.30822754 243.90727234 C 157.09246826 249.25794983 123.05249786 245.44798279 88.60067749 246.94020081 C 48.42757416 246.36859131 18.28920746 242.57319641 -0.33155060 224.46548462 C -14.41939545 199.88130188 -12.51372528 167.74081421 -13.99687958 127.74296570 C -13.64311218 90.00981140 -19.19919586 55.43675613 -16.21773529 23.47537994 C -7.69889832 -1.77327728 12.68039703 -11.78948975 44.28270721 -11.93739319 C 78.93616486 -10.77310181 108.82673645 -12.66934967 140.99717712 -13.51261902 C 176.57202148 -12.70439911 207.15209961 -18.29534912 229.88009644 -7.72720337 C 242.55364990 13.83005524 235.48101807 45.50465393 236.86920166 79.02193451 C 236.60430908 113.42714691 237.71743774 149.31797791 238.85681152 184.58355713" stroke-width="1.00000000" fill="rgb(255, 255, 255)" opacity="1.0" />
    <path d="M 94.23234558 211.14566040 C 94.51033783 223.25770569 95.46002197 230.34213257 87.36610413 234.12899780 C 75.78131866 234.93879700 68.02430725 232.67654419 61.61411285 227.97293091 C 59.40782928 220.29873657 60.89807510 213.33319092 60.41221237 200.84463501 C 60.49893570 191.36459351 60.71860504 182.58114624 60.39968109 173.26765442 C 60.45747375 162.31546021 60.65269470 154.10220337 60.33673859 145.41426086 C 61.77004242 131.91484070 56.64883804 125.37841797 65.79765320 126.49551392 C 79.02095032 126.87097168 84.54534912 126.30964661 93.27358246 126.74424744 C 95.93892670 137.54617310 93.58908081 145.05230713 94.50465393 153.72012329 C 94.24818420 162.21662903 94.59805298 170.29594421 94.34643555 181.85372925 C 94.18006897 193.58100891 94.39980316 201.10449219 94.23234558 211.14566040" stroke-width="1.00000000" fill="rgb(212, 39, 51)" opacity="1.0" />
    <path d="M 132.95756531 217.97401428 C 129.45904541 224.70617676 125.24240112 231.50396729 117.02372742 238.69827271 C 109.36334229 245.36471558 104.02450562 249.14089966 96.75596619 244.92263794 C 94.95187378 240.78826904 102.35433960 232.76502991 106.12572479 229.63461304 C 113.14310455 229.68658447 116.68374634 234.13603210 123.62801361 228.57176208 C 132.78352356 224.58695984 132.09895325 216.64938354 133.46765137 208.39366150 C 134.52680969 193.30313110 133.29551697 193.68505859 131.44354248 181.20161438 C 132.34289551 174.53591919 130.18206787 165.12515259 129.54237366 151.83938599 C 133.93377686 148.71334839 134.03631592 154.15388489 134.78868103 164.29031372 C 134.30946350 173.06077576 134.14184570 179.94258118 136.21501160 189.23152161 C 136.67262268 198.92442322 136.69752502 207.24645996 132.95756531 217.97401428" stroke-width="1.00000000" fill="rgb(4, 151, 242)" opacity="1.0" />
    <path d="M 163.71435547 174.20880127 C 164.20732117 183.35704041 163.04806519 190.77075195 164.03224182 201.54193115 C 163.16851807 212.40791321 165.75305176 218.01325989 161.95639038 230.15322876 C 158.70689392 235.87677002 145.87907410 235.06237793 136.83004761 230.52261353 C 127.63745117 227.52114868 129.36987305 220.50744629 129.37829590 207.95945740 C 129.10989380 193.48489380 129.64347839 187.85829163 129.42938232 179.27986145 C 129.21374512 162.34419250 129.62684631 167.27824402 129.14540100 154.41154480 C 129.88346863 147.80813599 128.95933533 136.06069946 129.53610229 127.53775024 C 138.52716064 125.95785522 149.05151367 127.81765747 156.69136047 127.03622437 C 168.93652344 124.59262085 162.74092102 133.04624939 163.77642822 144.92097473 C 164.05023193 157.37326050 163.61007690 160.79887390 163.71435547 174.20880127" stroke-width="1.00000000" fill="rgb(4, 109, 204)" opacity="1.0" />
  </g>
<animate attributeName="opacity" calcMode="discrete" dur="5.250000s" repeatCount="indefinite" keyTimes="0.000000;0.047619;0.095238;0.142857;0.190476;0.238095;0.285714;0.333333;0.380952;0.428571;0.476190;0.523810;0.571429;0.619048;0.666667;0.714286;0.761905;0.809524;0.857143;0.904762;0.952381;1" values="0;0;0;0;0;0;0;0;0;0;0;0;0;0;0;0;0;0;0;0;1;0" /></g></svg>